<svg
  xmlns="http://www.w3.org/2000/svg"
  width="17"
  height="18"
  viewBox="0 0 17 18"
  fill="none"
  className="text-[#18181B] dark:text-white"
>
  <path
    d="M9.4042 12.774L3.17419 11.0748M6.12471 7.00083C5.07238 8.58167 3.80888 9.01917 2.28463 9.30383C2.23406 9.31307 2.18677 9.33532 2.14743 9.36839C2.10808 9.40147 2.07804 9.44423 2.06026 9.49245C2.04247 9.54068 2.03757 9.59271 2.04602 9.64341C2.05447 9.69411 2.07599 9.74174 2.10846 9.78158L6.37846 14.9633C6.46519 15.0554 6.57952 15.1169 6.7042 15.1383C6.82889 15.1598 6.95717 15.1401 7.06971 15.0823C8.30346 14.2371 10.208 12.1295 10.208 11.0842M11.594 3.86366C11.709 3.74867 11.8455 3.65746 11.9958 3.59523C12.146 3.53301 12.307 3.50098 12.4696 3.50098C12.6322 3.50098 12.7933 3.53301 12.9435 3.59523C13.0937 3.65746 13.2302 3.74867 13.3452 3.86366C13.4602 3.97864 13.5514 4.11514 13.6136 4.26538C13.6759 4.41561 13.7079 4.57663 13.7079 4.73924C13.7079 4.90185 13.6759 5.06287 13.6136 5.2131C13.5514 5.36333 13.4602 5.49984 13.3452 5.61482L11.0014 7.95924C10.9467 8.01393 10.916 8.08811 10.916 8.16545C10.916 8.24279 10.9467 8.31696 11.0014 8.37166L11.552 8.92232C11.8156 9.18596 11.9637 9.54351 11.9637 9.91632C11.9637 10.2891 11.8156 10.6467 11.552 10.9103L11.0014 11.461C10.9467 11.5157 10.8725 11.5464 10.7952 11.5464C10.7178 11.5464 10.6437 11.5157 10.589 11.461L5.74787 6.62049C5.69319 6.56579 5.66248 6.49162 5.66248 6.41428C5.66248 6.33694 5.69319 6.26277 5.74787 6.20807L6.29854 5.65741C6.56218 5.39381 6.91973 5.24572 7.29254 5.24572C7.66535 5.24572 8.0229 5.39381 8.28654 5.65741L8.83721 6.20807C8.8919 6.26275 8.96607 6.29347 9.04341 6.29347C9.12075 6.29347 9.19493 6.26275 9.24962 6.20807L11.594 3.86366Z"
    stroke="currentColor"
    strokeWidth={1.5}
    strokeLinecap="round"
    strokeLinejoin="round"
  />
</svg>
