<svg width="95" height="18" viewBox="0 0 95 18" fill="none" xmlns="http://www.w3.org/2000/svg">
<path d="M13.2263 3.71147L12.153 6.69987C11.2545 5.95277 9.90678 5.50451 8.40926 5.50451C5.76366 5.50451 3.74202 7.12322 3.74202 10.0618C3.74202 12.7265 5.68878 14.6191 8.58397 14.6191C9.33273 14.6191 10.0066 14.4946 10.4808 14.3452V10.1614L13.7754 10.0369V16.4122C12.5274 17.2091 10.5807 17.6822 8.43422 17.6822C3.49243 17.6822 0.347656 14.4448 0.347656 10.0618C0.347656 5.65393 3.64218 2.4414 8.15968 2.4414C10.3061 2.4414 11.9783 2.86476 13.2263 3.71147Z" fill="black"/>
<path d="M28.5584 2.66553L28.3088 5.60412H21.9694V8.56761H27.1857V11.4315H21.9694V14.5195H28.6832V17.4581H18.6499V2.66553H28.5584Z" fill="black"/>
<path d="M45.889 2.66553V17.4581H43.0437L37.4031 9.56375C36.9788 8.96607 36.5795 8.34348 36.28 7.77071H36.1552V17.4581H32.9854V2.66553H36.2051L41.4713 10.0618C41.8956 10.6346 42.295 11.2572 42.5945 11.8299H42.7193V2.66553H45.889Z" fill="black"/>
<path d="M63.6322 2.66553V11.1825C63.6322 15.3413 61.2362 17.6822 57.2178 17.6822C53.1995 17.6822 50.8035 15.3413 50.8035 11.1825V2.66553H54.123V10.9334C54.123 13.2743 55.0964 14.644 57.2927 14.644C59.4641 14.644 60.4375 13.2743 60.4375 10.9334V2.66553H63.6322Z" fill="black"/>
<path d="M84.5527 2.66553V17.4581H81.2332V8.39329H81.1334C80.9836 9.04078 80.759 9.68826 80.4096 10.4852L78.0385 15.3413H74.9187L72.5726 10.4852C72.2481 9.73807 71.9986 9.04078 71.8488 8.39329H71.724V17.4581H68.5543V2.66553H72.0734L75.6175 10.0867C75.942 10.8089 76.3164 11.7303 76.4911 12.3031H76.6159C76.7906 11.7303 77.165 10.8089 77.4894 10.0867L81.0336 2.66553H84.5527Z" fill="black"/>
<path d="M92.7879 5.65084H91.45L90.9661 4.27142H88.9829L88.499 5.65084H87.218L89.2771 0H90.7383L92.7879 5.65084ZM90.6434 3.27254L90.188 1.97874C90.1026 1.7314 90.0457 1.52211 89.9982 1.29379H89.9508C89.9033 1.52211 89.8464 1.7314 89.761 1.97874L89.296 3.27254H90.6434Z" fill="black"/>
<path d="M94.6528 0V5.65084H93.3908V0H94.6528Z" fill="black"/>
</svg>
