<svg width="165" height="284" viewBox="0 0 165 284" fill="none" xmlns="http://www.w3.org/2000/svg">
<path d="M119.136 26.2771C127.458 26.2771 134.229 33.0517 134.229 41.379L134.229 240.748C134.229 249.075 127.458 255.85 119.136 255.85L44.5629 255.85C36.2405 255.85 29.4698 249.075 29.4698 240.748L29.4698 41.379C29.4698 33.0517 36.2405 26.2771 44.5629 26.2771L119.136 26.2771ZM119.136 21.9961L44.5629 21.9961C33.8644 21.9961 25.1914 30.6742 25.1914 41.3792L25.1914 240.748C25.1914 251.453 33.8644 260.132 44.5629 260.132H119.136C129.834 260.132 138.507 251.453 138.507 240.748L138.507 41.379C138.507 30.6741 129.834 21.9961 119.136 21.9961Z" fill="black"/>
<path d="M92.2206 38.6046H71.4655C68.8913 38.6046 66.8047 36.5167 66.8047 33.941C66.8047 31.3652 68.8913 29.2773 71.4655 29.2773L92.2206 29.2773C94.7948 29.2773 96.8814 31.3652 96.8814 33.941C96.8814 36.5165 94.7948 38.6046 92.2206 38.6046Z" fill="black"/>
<path d="M99.2655 252.274H64.4157C63.7567 252.274 63.2227 251.74 63.2227 251.08C63.2227 250.421 63.7567 249.887 64.4157 249.887H99.2655C99.9245 249.887 100.459 250.421 100.459 251.08C100.459 251.74 99.9245 252.274 99.2655 252.274Z" fill="#1A1A1A"/>
<path d="M39.1623 7.6501C39.1634 7.64731 39.1651 7.64512 39.1659 7.64307C39.1682 7.63706 39.1685 7.63503 39.1695 7.63252L39.17 7.63171L39.1859 7.58709C39.1859 7.58709 39.1865 7.58686 39.187 7.58547C39.1875 7.58428 39.1882 7.58156 39.1892 7.57871C39.1903 7.57569 39.1924 7.5714 39.1939 7.56654C39.1965 7.55803 39.1985 7.55025 39.1997 7.54572C39.2011 7.53999 39.2003 7.53868 39.2008 7.53705L39.2013 7.53624L39.2124 7.49187L39.2134 7.49025C39.2138 7.48882 39.2145 7.48553 39.2154 7.48214C39.2162 7.47874 39.2174 7.47419 39.2184 7.46888C39.2205 7.4585 39.2222 7.44946 39.2229 7.44479C39.2233 7.4413 39.2229 7.44102 39.2232 7.43911C39.2233 7.4379 39.2229 7.43746 39.2229 7.43775C39.2252 7.42383 39.2277 7.40874 39.2296 7.39282L39.2301 7.39201L39.2299 7.39065C39.2304 7.38742 39.2323 7.37855 39.2332 7.36819L39.2347 7.34328L39.2344 7.3384L39.2371 7.29426C39.2371 7.29318 39.2367 7.29211 39.2368 7.28939C39.237 7.28528 39.2373 7.27632 39.2372 7.26609L39.2368 7.24578L39.237 7.24361C39.2369 7.24026 39.2363 7.23717 39.2363 7.23603L39.236 7.23467C39.2356 7.22221 39.2352 7.2097 39.2343 7.19701L39.234 7.19566C39.2339 7.19478 39.2335 7.19367 39.2332 7.18807C39.233 7.18372 39.2334 7.1754 39.2325 7.1664C39.2315 7.15631 39.2295 7.14758 39.2288 7.1439L39.2286 7.14255L39.2288 7.14038L39.228 7.13984L39.2278 7.13848C39.226 7.12543 39.2237 7.11171 39.2212 7.09755L39.2217 7.09674L39.2172 7.0737C39.2166 7.07054 39.2167 7.06697 39.2159 7.0634C39.2156 7.06173 39.2153 7.0599 39.2149 7.05798L39.2138 7.05608C39.2127 7.05135 39.2122 7.04691 39.2114 7.04388L39.2093 7.03656C39.2095 7.03731 39.2096 7.03877 39.2101 7.04062L39.2 6.99968L39.1986 6.99642C39.1979 6.99399 39.1975 6.99202 39.196 6.98639C39.1946 6.98146 39.1924 6.97396 39.1898 6.96578C39.1868 6.9563 39.184 6.94655 39.1823 6.94191C39.1773 6.92707 39.1717 6.91327 39.1676 6.90257C39.1653 6.89638 39.1604 6.88383 39.1553 6.8719L39.1548 6.87271C39.1509 6.86356 39.1477 6.85469 39.144 6.84666L39.1271 6.81056L39.1134 6.78369L39.1126 6.78314C39.1086 6.77571 39.1039 6.76572 39.0981 6.75572L39.0785 6.72367L39.0777 6.72313C39.0732 6.71597 39.0671 6.7062 39.0605 6.69623L39.0435 6.6707L39.0427 6.67015C39.035 6.65939 39.0271 6.6489 39.0217 6.64189L39.0209 6.64134C39.0165 6.63563 39.0084 6.62451 39.0002 6.61443L38.9991 6.61253C38.9945 6.60702 38.9877 6.59874 38.9808 6.59078C38.9726 6.58121 38.9638 6.57281 38.9568 6.56521C38.95 6.55793 38.9418 6.54781 38.9325 6.53829L38.9317 6.53774C38.9237 6.52959 38.9152 6.52234 38.9093 6.51679C38.9015 6.50932 38.8936 6.502 38.8862 6.49529L38.8859 6.49393C38.8786 6.48738 38.8674 6.47978 38.8567 6.47078L38.8573 6.46997C38.8474 6.46163 38.8362 6.45403 38.8308 6.4498L38.8314 6.44899L38.833 6.45008C38.8313 6.44864 38.8253 6.44326 38.8179 6.43756L38.8171 6.43701C38.8131 6.43399 38.8097 6.43089 38.8071 6.42911L38.8047 6.42747L38.7777 6.40812C38.7666 6.40039 38.7529 6.39248 38.7488 6.38984L38.748 6.3893C38.7404 6.38444 38.727 6.37524 38.7134 6.3672C38.7131 6.36705 38.6997 6.35939 38.6912 6.35464L38.6629 6.33908L38.6631 6.34043C38.6489 6.33286 38.6335 6.32408 38.6169 6.31639C38.6144 6.31508 38.6109 6.31382 38.6069 6.31201L38.6067 6.31065L38.6021 6.30874L38.6012 6.30819C38.6001 6.30762 38.5985 6.30711 38.5967 6.30628L38.5961 6.30709L38.5958 6.30573L38.5912 6.30381L38.5842 6.30026L38.5845 6.30162L32.8963 3.72716C32.3755 3.49138 31.7607 3.70382 31.5344 4.22533C31.3338 4.68799 31.5159 5.21811 31.9241 5.49306C31.9741 5.52672 32.0277 5.55652 32.0843 5.58208L34.9414 6.87451C31.3086 7.79993 27.8852 9.25927 24.7324 11.2337C20.5675 13.8421 17.0617 17.2338 14.314 21.3146C11.5519 25.4175 9.72346 29.9678 8.87994 34.837C8.06534 39.5394 8.20004 44.3324 9.28029 49.0816C9.34267 49.3555 9.50985 49.5821 9.72752 49.7288C9.94998 49.8785 10.2301 49.9478 10.5125 49.897C11.0759 49.7955 11.4318 49.2571 11.305 48.6988C9.20441 39.4636 10.8921 30.1555 16.0549 22.4866C20.6719 15.6285 27.5589 10.8493 35.6527 8.8238L33.8118 11.2104C33.4872 11.6316 33.5631 12.223 33.9478 12.5804L34.0293 12.6482C34.0467 12.6615 34.0642 12.6741 34.0817 12.6858C34.5314 12.9886 35.1468 12.9154 35.4796 12.4839L39.0332 7.87513L39.0354 7.87189C39.038 7.86841 39.0407 7.86579 39.0422 7.86353L39.0455 7.85866L39.0408 7.86379C39.0469 7.85574 39.0544 7.84671 39.0616 7.83653L39.0626 7.83491C39.0697 7.8246 39.0777 7.811 39.0798 7.80763L39.1003 7.77549L39.1008 7.77468C39.1031 7.77086 39.1085 7.76124 39.1134 7.75253C39.1207 7.73945 39.128 7.72471 39.1298 7.72118C39.1349 7.71112 39.1411 7.69954 39.147 7.68686L39.1476 7.68605C39.1485 7.68433 39.1522 7.67705 39.156 7.66821L39.1629 7.64929L39.1634 7.64848L39.1623 7.6501Z" fill="black" stroke="black" stroke-width="0.4"/>
<path d="M125.279 275.377C125.278 275.38 125.276 275.382 125.276 275.384C125.273 275.39 125.273 275.392 125.272 275.395L125.271 275.396L125.255 275.44C125.255 275.44 125.255 275.44 125.254 275.442C125.254 275.443 125.253 275.446 125.252 275.449C125.251 275.452 125.249 275.456 125.248 275.461C125.245 275.469 125.243 275.477 125.242 275.482C125.24 275.487 125.241 275.489 125.241 275.49L125.24 275.491L125.229 275.535L125.228 275.537C125.228 275.539 125.227 275.542 125.226 275.545C125.225 275.549 125.224 275.553 125.223 275.558C125.221 275.569 125.219 275.578 125.219 275.583C125.218 275.586 125.219 275.586 125.218 275.588C125.218 275.589 125.218 275.59 125.219 275.59C125.216 275.604 125.214 275.619 125.212 275.635L125.211 275.635L125.212 275.637C125.211 275.64 125.209 275.649 125.208 275.659L125.207 275.684L125.207 275.689L125.204 275.733C125.204 275.734 125.205 275.735 125.205 275.738C125.204 275.742 125.204 275.751 125.204 275.761L125.205 275.782L125.204 275.784C125.204 275.787 125.205 275.79 125.205 275.791L125.205 275.793C125.206 275.805 125.206 275.818 125.207 275.83L125.207 275.832C125.207 275.833 125.208 275.834 125.208 275.839C125.208 275.844 125.208 275.852 125.209 275.861C125.21 275.871 125.212 275.88 125.213 275.883L125.213 275.885L125.213 275.887L125.213 275.888L125.214 275.889C125.215 275.902 125.218 275.916 125.22 275.93L125.22 275.931L125.224 275.954C125.225 275.957 125.225 275.96 125.225 275.964C125.226 275.966 125.226 275.967 125.227 275.969L125.228 275.971C125.229 275.976 125.229 275.98 125.23 275.983L125.232 275.991C125.232 275.99 125.232 275.989 125.231 275.987L125.241 276.028L125.243 276.031C125.243 276.033 125.244 276.035 125.245 276.041C125.247 276.046 125.249 276.053 125.252 276.062C125.255 276.071 125.257 276.081 125.259 276.085C125.264 276.1 125.27 276.114 125.274 276.125C125.276 276.131 125.281 276.144 125.286 276.155L125.287 276.155C125.29 276.164 125.294 276.173 125.297 276.181L125.314 276.217L125.328 276.244L125.329 276.244C125.333 276.252 125.338 276.262 125.343 276.272L125.363 276.304L125.364 276.304C125.368 276.311 125.374 276.321 125.381 276.331L125.398 276.357L125.399 276.357C125.406 276.368 125.414 276.378 125.42 276.385L125.42 276.386C125.425 276.392 125.433 276.403 125.441 276.413L125.442 276.415C125.447 276.42 125.454 276.429 125.461 276.437C125.469 276.446 125.478 276.455 125.485 276.462C125.491 276.469 125.5 276.48 125.509 276.489L125.51 276.49C125.518 276.498 125.526 276.505 125.532 276.511C125.54 276.518 125.548 276.525 125.555 276.532L125.556 276.533C125.563 276.54 125.574 276.548 125.585 276.557L125.584 276.557C125.594 276.566 125.605 276.573 125.611 276.578L125.61 276.578L125.608 276.577C125.61 276.579 125.616 276.584 125.624 276.59L125.624 276.59C125.628 276.593 125.632 276.596 125.634 276.598L125.637 276.6L125.664 276.619C125.675 276.627 125.689 276.635 125.693 276.637L125.693 276.638C125.701 276.643 125.714 276.652 125.728 276.66C125.728 276.66 125.742 276.668 125.75 276.673L125.779 276.688L125.778 276.687C125.792 276.694 125.808 276.703 125.824 276.711C125.827 276.712 125.831 276.714 125.834 276.715L125.835 276.717L125.839 276.719L125.84 276.719C125.841 276.72 125.843 276.72 125.845 276.721L125.845 276.72L125.846 276.722L125.85 276.724L125.857 276.727L125.857 276.726L131.545 279.3C132.066 279.536 132.681 279.324 132.907 278.802C133.108 278.339 132.926 277.809 132.517 277.534C132.467 277.501 132.414 277.471 132.357 277.445L129.5 276.153C133.133 275.227 136.556 273.768 139.709 271.794C143.874 269.185 147.38 265.794 150.127 261.713C152.89 257.61 154.718 253.06 155.561 248.19C156.376 243.488 156.241 238.695 155.161 233.946C155.099 233.672 154.932 233.445 154.714 233.299C154.491 233.149 154.211 233.08 153.929 233.13C153.366 233.232 153.01 233.77 153.136 234.329C155.237 243.564 153.549 252.872 148.387 260.541C143.77 267.399 136.883 272.178 128.789 274.204L130.63 271.817C130.954 271.396 130.878 270.804 130.494 270.447L130.412 270.379C130.395 270.366 130.377 270.353 130.36 270.342C129.91 270.039 129.295 270.112 128.962 270.543L125.408 275.152L125.406 275.155C125.403 275.159 125.401 275.162 125.399 275.164L125.396 275.169L125.401 275.164C125.394 275.172 125.387 275.181 125.38 275.191L125.379 275.192C125.372 275.203 125.364 275.216 125.362 275.22L125.341 275.252L125.341 275.253C125.338 275.256 125.333 275.266 125.328 275.275C125.321 275.288 125.313 275.303 125.312 275.306C125.307 275.316 125.3 275.328 125.294 275.34L125.294 275.341C125.293 275.343 125.289 275.35 125.285 275.359L125.279 275.378L125.278 275.379L125.279 275.377Z" fill="black" stroke="black" stroke-width="0.4"/>
</svg>
