<?xml version="1.0" encoding="UTF-8"?>
<svg id="Layer_1" xmlns="http://www.w3.org/2000/svg" version="1.1" viewBox="0 0 104 40">
  <!-- Generator: Adobe Illustrator 29.6.0, SVG Export Plug-In . SVG Version: 2.1.1 Build 207)  -->
  <defs>
    <style>
      .st0 {
        fill: #231f20;
      }
    </style>
  </defs>
  <path class="st0" d="M7.1,7.8h1.6l1.9,3.6h2.3l-2.1-3.9s0,0,.1,0c.5-.3.9-.6,1.2-1.1s.4-1,.4-1.7-.1-1.2-.4-1.7-.7-.9-1.2-1.1-1.2-.4-1.9-.4h-3.9v9.9h2v-3.6ZM8.6,3c.4,0,.8,0,1,.2s.5.3.6.5.2.5.2.9,0,.6-.2.8-.3.4-.6.5-.6.2-1,.2h-1.5v-3.1h1.5Z"/>
  <path class="st0" d="M23.1,6.3c0-1.1-.2-2-.6-2.8s-1-1.3-1.7-1.7-1.5-.6-2.4-.6-1.7.2-2.4.6-1.3,1-1.7,1.7-.6,1.7-.6,2.8.2,2,.6,2.8,1,1.3,1.7,1.7,1.5.6,2.4.6,1.7-.2,2.4-.6,1.3-1,1.7-1.7.6-1.7.6-2.8ZM20.7,8.1c-.2.5-.5.9-.9,1.1s-.8.4-1.4.4-1-.1-1.3-.4-.7-.6-.9-1.1-.3-1.1-.3-1.8.1-1.3.3-1.8.5-.9.9-1.1.8-.4,1.3-.4,1,.1,1.4.4.7.6.9,1.1.3,1.1.3,1.8-.1,1.3-.3,1.8Z"/>
  <polygon class="st0" points="26.8 11.3 28.8 11.3 28.8 3 31.9 3 31.9 1.4 23.7 1.4 23.7 3 26.8 3 26.8 11.3"/>
  <path class="st0" d="M34.5,9h3.5l.8,2.3h2.3l-3.5-9.9h-2.7l-3.4,9.9h2.2l.7-2.3ZM35.8,4.5c.1-.5.2-1,.4-1.5.1.5.3,1,.4,1.5.2.7.4,1.4.6,2l.3.9h-2.5l.3-.9c.2-.6.4-1.3.6-2Z"/>
  <polygon class="st0" points="43.7 11.3 45.7 11.3 45.7 3 48.8 3 48.8 1.4 40.6 1.4 40.6 3 43.7 3 43.7 11.3"/>
  <polygon class="st0" points="56.8 9.6 52.2 9.6 52.2 7.1 56.5 7.1 56.5 5.5 52.2 5.5 52.2 3 56.8 3 56.8 1.4 50.2 1.4 50.2 11.3 56.8 11.3 56.8 9.6"/>
  <path class="st0" d="M64.8,11.3h2v-3.7l3.6-6.2h-2.4l-1.6,3.1c-.2.3-.3.6-.4.9,0,.1-.1.3-.2.5,0-.2-.1-.3-.2-.5-.1-.3-.3-.6-.5-.9l-1.7-3.1h-2.4l3.7,6.2v3.7Z"/>
  <path class="st0" d="M77.8,10.8c.7-.4,1.3-1,1.7-1.7s.6-1.7.6-2.8-.2-2-.6-2.8-1-1.3-1.7-1.7-1.5-.6-2.4-.6-1.7.2-2.4.6-1.3,1-1.7,1.7-.6,1.7-.6,2.8.2,2,.6,2.8,1,1.3,1.7,1.7,1.5.6,2.4.6,1.7-.2,2.4-.6ZM73.2,8.1c-.2-.5-.3-1.1-.3-1.8s.1-1.3.3-1.8.5-.9.9-1.1.8-.4,1.3-.4,1,.1,1.4.4.7.6.9,1.1.3,1.1.3,1.8-.1,1.3-.3,1.8-.5.9-.9,1.1-.8.4-1.4.4-1-.1-1.3-.4-.7-.6-.9-1.1Z"/>
  <path class="st0" d="M83.6,11c.6.3,1.3.5,2.2.5s1.5-.2,2.2-.5,1.1-.7,1.4-1.3.5-1.2.5-1.9V1.4h-2v6.3c0,.4,0,.7-.3,1s-.4.5-.7.7-.7.3-1.1.3-.8,0-1.1-.3-.5-.4-.7-.7-.3-.6-.3-1V1.4h-2v6.5c0,.7.2,1.4.5,1.9s.8,1,1.4,1.3Z"/>
  <path class="st0" d="M93.7,7.8h1.6l1.9,3.6h2.3l-2.1-3.9s0,0,.1,0c.5-.3.9-.6,1.2-1.1s.4-1,.4-1.7-.1-1.2-.4-1.7-.7-.9-1.2-1.1-1.2-.4-1.9-.4h-3.9v9.9h2v-3.6ZM95.1,3c.4,0,.8,0,1,.2s.5.3.6.5.2.5.2.9,0,.6-.2.8-.3.4-.6.5-.6.2-1,.2h-1.5v-3.1h1.5Z"/>
  <path class="st0" d="M5.1,21.7h1.8c.8,0,1.4-.1,2-.4s.9-.7,1.2-1.2.4-1.1.4-1.7-.1-1.2-.4-1.7-.7-.9-1.2-1.2-1.2-.4-1.9-.4h-3.9v9.9h2v-3.3ZM6.6,16.7c.4,0,.8,0,1,.2s.5.3.6.6.2.5.2.9,0,.6-.2.9-.3.5-.6.6-.6.2-1,.2h-1.5v-3.4h1.5Z"/>
  <polygon class="st0" points="14 20.7 18.3 20.7 18.3 25 20.3 25 20.3 15 18.3 15 18.3 19 14 19 14 15 11.9 15 11.9 25 14 25 14 20.7"/>
  <path class="st0" d="M28.9,15.5c-.7-.4-1.5-.6-2.4-.6s-1.7.2-2.4.6-1.3,1-1.7,1.7-.6,1.7-.6,2.8.2,2,.6,2.8,1,1.3,1.7,1.7,1.5.6,2.4.6,1.7-.2,2.4-.6,1.3-1,1.7-1.7.6-1.7.6-2.8-.2-2-.6-2.8-1-1.3-1.7-1.7ZM28.7,21.8c-.2.5-.5.9-.9,1.1s-.8.4-1.4.4-1-.1-1.3-.4-.7-.6-.9-1.1-.3-1.1-.3-1.8.1-1.3.3-1.8.5-.9.9-1.1.8-.4,1.3-.4,1,.1,1.4.4.7.6.9,1.1.3,1.1.3,1.8-.1,1.3-.3,1.8Z"/>
  <path class="st0" d="M34.7,20.4c0-.2,0-.5,0-.9s0-.8,0-1.2c0-.2,0-.5,0-.8.1.3.3.6.4.8.2.4.4.7.6,1.1s.4.7.6,1l2.9,4.6h2.3v-9.9h-2.1v4.8c0,.3,0,.6,0,1s0,.8,0,1.2c0,.2,0,.3,0,.5,0-.2-.2-.4-.3-.6-.2-.4-.3-.7-.5-1s-.3-.6-.5-.8l-3.1-5h-2.3v9.9h2.1v-4.6Z"/>
  <polygon class="st0" points="49.8 23.3 45.1 23.3 45.1 20.8 49.4 20.8 49.4 19.1 45.1 19.1 45.1 16.7 49.7 16.7 49.7 15 43.1 15 43.1 25 49.8 25 49.8 23.3"/>
  <polygon class="st0" points="57.3 25 59.3 25 59.3 16.7 62.3 16.7 62.3 15 54.2 15 54.2 16.7 57.3 16.7 57.3 25"/>
  <path class="st0" d="M67.7,25.1c.9,0,1.7-.2,2.4-.6s1.3-1,1.7-1.7.6-1.7.6-2.8-.2-2-.6-2.8-1-1.3-1.7-1.7-1.5-.6-2.4-.6-1.7.2-2.4.6-1.3,1-1.7,1.7-.6,1.7-.6,2.8.2,2,.6,2.8,1,1.3,1.7,1.7,1.5.6,2.4.6ZM65.4,18.2c.2-.5.5-.9.9-1.1s.8-.4,1.3-.4,1,.1,1.4.4.7.6.9,1.1.3,1.1.3,1.8-.1,1.3-.3,1.8-.5.9-.9,1.1-.8.4-1.4.4-1-.1-1.3-.4-.7-.6-.9-1.1-.3-1.1-.3-1.8.1-1.3.3-1.8Z"/>
  <path class="st0" d="M77.5,16.3c-.3.4-.5,1-.5,1.6s.2,1.3.7,1.7,1.1.8,2,1l1.1.3c.4,0,.7.2.9.3s.4.2.6.4.2.3.2.6,0,.5-.2.7-.4.3-.6.4-.6.2-1,.2-.7,0-1-.2-.5-.3-.7-.5-.3-.5-.3-.8h-2c0,.7.2,1.3.5,1.8s.8.8,1.4,1.1,1.3.4,2.1.4,1.5-.1,2.1-.4,1-.6,1.3-1,.5-1,.5-1.6,0-.8-.2-1.1-.4-.6-.6-.8-.6-.4-.9-.6-.7-.3-1.2-.4l-.9-.2c-.3,0-.5-.2-.8-.3s-.4-.2-.6-.4-.2-.4-.2-.6,0-.4.2-.6.3-.3.6-.4.5-.1.9-.1c.5,0,.9.1,1.2.3s.5.5.5.9h2c0-.6-.2-1.1-.5-1.5s-.7-.8-1.3-1-1.2-.4-1.9-.4-1.4.1-1.9.4-1,.6-1.3,1Z"/>
  <polygon class="st0" points="88.1 20.8 92.3 20.8 92.3 19.1 88.1 19.1 88.1 16.7 92.7 16.7 92.7 15 86 15 86 25 92.7 25 92.7 23.3 88.1 23.3 88.1 20.8"/>
  <polygon class="st0" points="96.4 23.3 96.4 20.8 100.6 20.8 100.6 19.1 96.4 19.1 96.4 16.7 101 16.7 101 15 94.3 15 94.3 25 101 25 101 23.3 96.4 23.3"/>
  <polygon class="st0" points="3 30.4 6 30.4 6 38.6 8.1 38.6 8.1 30.4 11.1 30.4 11.1 28.7 3 28.7 3 30.4"/>
  <polygon class="st0" points="18.9 32.7 14.6 32.7 14.6 28.7 12.5 28.7 12.5 38.6 14.6 38.6 14.6 34.4 18.9 34.4 18.9 38.6 20.9 38.6 20.9 28.7 18.9 28.7 18.9 32.7"/>
  <polygon class="st0" points="24.8 34.4 29 34.4 29 32.8 24.8 32.8 24.8 30.4 29.4 30.4 29.4 28.7 22.7 28.7 22.7 38.6 29.4 38.6 29.4 37 24.8 37 24.8 34.4"/>
  <path class="st0" d="M40.6,36c-.1.2-.3.4-.5.5s-.4.3-.7.3-.5.1-.8.1c-.5,0-1-.1-1.3-.4s-.7-.6-.9-1.1-.3-1.1-.3-1.8.1-1.3.3-1.8.5-.9.9-1.1.8-.4,1.4-.4.5,0,.8.1.5.2.7.3.3.3.5.5.2.5.3.7h2.1c0-.6-.2-1.1-.5-1.5s-.5-.8-.9-1.1-.8-.5-1.3-.7-1-.2-1.6-.2c-.9,0-1.7.2-2.4.6s-1.3,1-1.7,1.7-.6,1.7-.6,2.8.2,2,.6,2.8,1,1.3,1.6,1.7,1.5.6,2.4.6,1.2,0,1.7-.3.9-.5,1.3-.8.7-.7.9-1.1.4-.9.4-1.3h-2.1c0,.3-.1.5-.3.7Z"/>
  <path class="st0" d="M51.1,29.2c-.7-.4-1.5-.6-2.4-.6s-1.7.2-2.4.6-1.3,1-1.7,1.7-.6,1.7-.6,2.8.2,2,.6,2.8,1,1.3,1.7,1.7,1.5.6,2.4.6,1.7-.2,2.4-.6,1.3-1,1.7-1.7.6-1.7.6-2.8-.2-2-.6-2.8-1-1.3-1.7-1.7ZM51,35.5c-.2.5-.5.9-.9,1.1s-.8.4-1.4.4-1-.1-1.3-.4-.7-.6-.9-1.1-.3-1.1-.3-1.8.1-1.3.3-1.8.5-.9.9-1.1.8-.4,1.3-.4,1,.1,1.4.4.7.6.9,1.1.3,1.1.3,1.8-.1,1.3-.3,1.8Z"/>
  <path class="st0" d="M61.5,33.5c0,.3,0,.6,0,1s0,.8,0,1.2c0,.2,0,.3,0,.5,0-.2-.2-.4-.3-.6-.2-.4-.3-.7-.5-1s-.3-.6-.5-.8l-3.1-5h-2.3v9.9h2.1v-4.6c0-.2,0-.5,0-.9s0-.8,0-1.2c0-.2,0-.5,0-.8.1.3.3.6.4.8.2.4.4.7.6,1.1s.4.7.6,1l2.9,4.6h2.3v-9.9h-2.1v4.8Z"/>
  <polygon class="st0" points="64.9 30.4 68 30.4 68 38.6 70 38.6 70 30.4 73.1 30.4 73.1 28.7 64.9 28.7 64.9 30.4"/>
  <polygon class="st0" points="76.5 34.4 80.8 34.4 80.8 32.8 76.5 32.8 76.5 30.4 81.1 30.4 81.1 28.7 74.5 28.7 74.5 38.6 81.1 38.6 81.1 37 76.5 37 76.5 34.4"/>
  <path class="st0" d="M89.3,33.5c0,.3,0,.6,0,1s0,.8,0,1.2c0,.2,0,.3,0,.5,0-.2-.2-.4-.3-.6-.2-.4-.3-.7-.5-1s-.3-.6-.5-.8l-3.1-5h-2.3v9.9h2.1v-4.6c0-.2,0-.5,0-.9s0-.8,0-1.2c0-.2,0-.5,0-.8.1.3.3.6.4.8.2.4.4.7.6,1.1s.4.7.6,1l2.9,4.6h2.3v-9.9h-2.1v4.8Z"/>
  <polygon class="st0" points="92.8 30.4 95.8 30.4 95.8 38.6 97.9 38.6 97.9 30.4 100.9 30.4 100.9 28.7 92.8 28.7 92.8 30.4"/>
</svg>