<svg
        width="15"
        height="15"
        viewBox="0 0 15 15"
        fill="none"
        xmlns="http://www.w3.org/2000/svg"
>
    <path
            d="M3.12443 5.33148L3.30859 4.83398L3.49359 5.33148C3.73443 5.98482 3.85526 6.31148 4.09359 6.54982C4.33085 6.78707 4.65709 6.9079 5.30824 7.14907L5.80859 7.33398L5.31109 7.51898C4.65776 7.75982 4.33109 7.88065 4.09276 8.11898C3.85526 8.35648 3.73442 8.68316 3.49276 9.33648L3.30859 9.83398L3.12359 9.33648C2.88276 8.68315 2.76193 8.35648 2.52359 8.11815C2.28634 7.8809 1.9601 7.76007 1.30895 7.5189L0.808594 7.33398L1.30609 7.14898C1.95943 6.90815 2.28609 6.78732 2.52443 6.54898C2.76193 6.31149 2.88276 5.98481 3.12443 5.33148Z"
            stroke-width="0.7"
            stroke-linecap="round"
            stroke-linejoin="round"
    />
    <path
            d="M11.9135 5.33148L12.0976 4.83398L12.2826 5.33148C12.5235 5.98482 12.6443 6.31148 12.8826 6.54982C13.1199 6.78707 13.4461 6.9079 14.0973 7.14907L14.5976 7.33398L14.1001 7.51898C13.4468 7.75982 13.1201 7.88065 12.8818 8.11898C12.6443 8.35648 12.5235 8.68316 12.2818 9.33648L12.0976 9.83398L11.9126 9.33648C11.6718 8.68315 11.551 8.35648 11.3126 8.11815C11.0754 7.8809 10.7491 7.76007 10.098 7.5189L9.59764 7.33398L10.0951 7.14898C10.7485 6.90815 11.0751 6.78732 11.3135 6.54898C11.551 6.31149 11.6718 5.98481 11.9135 5.33148Z"
            stroke-width="0.7"
            stroke-linecap="round"
            stroke-linejoin="round"
    />
    <path
            d="M7.58828 1.04633L7.77245 0.548828L7.95745 1.04633C8.19828 1.69966 8.31911 2.02633 8.55745 2.26466C8.7947 2.50192 9.12094 2.62274 9.77209 2.86391L10.2724 3.04883L9.77495 3.23383C9.12161 3.47466 8.79495 3.59549 8.55661 3.83383C8.31911 4.07133 8.19828 4.398 7.95661 5.05133L7.77245 5.54883L7.58745 5.05133C7.34661 4.39799 7.22578 4.07133 6.98745 3.83299C6.75019 3.59574 6.42396 3.47491 5.77281 3.23375L5.27245 3.04883L5.76995 2.86383C6.42328 2.62299 6.74995 2.50216 6.98828 2.26383C7.22578 2.02633 7.34661 1.69966 7.58828 1.04633Z"
            stroke-width="0.7"
            stroke-linecap="round"
            stroke-linejoin="round"
    />
    <path
            d="M7.58828 9.61469L7.77245 9.11719L7.95745 9.61469C8.19828 10.268 8.31911 10.5947 8.55745 10.833C8.7947 11.0703 9.12094 11.1911 9.77209 11.4323L10.2724 11.6172L9.77495 11.8022C9.12161 12.043 8.79495 12.1639 8.55661 12.4022C8.31911 12.6397 8.19828 12.9664 7.95661 13.6197L7.77245 14.1172L7.58745 13.6197C7.34661 12.9664 7.22578 12.6397 6.98745 12.4014C6.75019 12.1641 6.42396 12.0433 5.77281 11.8021L5.27245 11.6172L5.76995 11.4322C6.42328 11.1914 6.74995 11.0705 6.98828 10.8322C7.22578 10.5947 7.34661 10.268 7.58828 9.61469Z"
            stroke-width="0.7"
            stroke-linecap="round"
            stroke-linejoin="round"
    />
</svg>